<svg width="83" height="83" xmlns="http://www.w3.org/2000/svg" id="icon-logo-gitee">
            <g fill="none" fill-rule="evenodd"><circle fill="#C71D23" cx="41.5" cy="41.5" r="41.5"></circle><path d="M63.867 36.782H39.33c-1.179 0-2.134.935-2.134 2.088v6.26c0 1.153.955 2.087 2.134 2.087H53.2c1.6 0 2.132.522 2.133 2.088.001 4.173-2.448 6.26-6.4 6.26H30.806c-1.183 0-2.142-.935-2.142-2.087V34.697c0-3.459 2.866-6.263 6.399-6.263H63.86c1.178 0 2.133-.934 2.133-2.086v-6.26c0-1.154-.954-2.088-2.133-2.088H35.064C25.642 18 18 25.474 18 34.695v29.219c0 1.15.955 2.086 2.133 2.086h28.8c9.439 0 16.956-7.984 17.06-17.218C66 48.26 66 39.39 66 38.87c.001-1.15-.953-2.084-2.133-2.087v-.001z" fill="#FFF"></path></g>
        </svg>